<?xml version="1.0" encoding="UTF-8" standalone="no"?>
<!DOCTYPE svg PUBLIC "-//W3C//DTD SVG 1.1//EN"
 "http://www.w3.org/Graphics/SVG/1.1/DTD/svg11.dtd">
<!-- Generated by graphviz version 2.43.0 (0)
 -->
<!-- Title: AGI_HPC Pages: 1 -->
<svg width="911pt" height="670pt"
 viewBox="0.00 0.00 910.64 670.00" xmlns="http://www.w3.org/2000/svg" xmlns:xlink="http://www.w3.org/1999/xlink">
<g id="graph0" class="graph" transform="scale(1 1) rotate(0) translate(4 666)">
<title>AGI_HPC</title>
<polygon fill="white" stroke="transparent" points="-4,4 -4,-666 906.64,-666 906.64,4 -4,4"/>
<g id="clust1" class="cluster">
<title>cluster_LH</title>
<polygon fill="lightyellow" stroke="lightyellow" points="195.44,-388 195.44,-571 543.16,-571 543.16,-388 195.44,-388"/>
<text text-anchor="middle" x="369.3" y="-555.8" font-family="Times,serif" font-size="14.00">Left Hemisphere</text>
</g>
<g id="clust2" class="cluster">
<title>cluster_RH</title>
<polygon fill="lightyellow" stroke="lightyellow" points="170.09,-35 170.09,-380 374.57,-380 374.57,-35 170.09,-35"/>
<text text-anchor="middle" x="272.33" y="-364.8" font-family="Times,serif" font-size="14.00">Right Hemisphere</text>
</g>
<g id="clust3" class="cluster">
<title>cluster_MEM</title>
<polygon fill="lightyellow" stroke="lightyellow" points="563.16,-280 563.16,-463 894.64,-463 894.64,-280 563.16,-280"/>
<text text-anchor="middle" x="728.9" y="-447.8" font-family="Times,serif" font-size="14.00">Memory</text>
</g>
<g id="clust4" class="cluster">
<title>cluster_SAFETY</title>
<polygon fill="lightyellow" stroke="lightyellow" points="419.92,-8 419.92,-191 685.75,-191 685.75,-8 419.92,-8"/>
<text text-anchor="middle" x="552.84" y="-175.8" font-family="Times,serif" font-size="14.00">Safety</text>
</g>
<g id="clust5" class="cluster">
<title>cluster_META</title>
<polygon fill="lightyellow" stroke="lightyellow" points="8,-579 8,-654 363.52,-654 363.52,-579 8,-579"/>
<text text-anchor="middle" x="185.76" y="-638.8" font-family="Times,serif" font-size="14.00">Metacognition</text>
</g>
<g id="clust6" class="cluster">
<title>cluster_FABRIC</title>
<polygon fill="lightyellow" stroke="lightyellow" points="414.07,-305 414.07,-380 523.66,-380 523.66,-305 414.07,-305"/>
<text text-anchor="middle" x="468.87" y="-364.8" font-family="Times,serif" font-size="14.00">Event Fabric</text>
</g>
<g id="clust7" class="cluster">
<title>cluster_ENV</title>
<polygon fill="lightyellow" stroke="lightyellow" points="14.5,-89 14.5,-218 143.59,-218 143.59,-89 14.5,-89"/>
<text text-anchor="middle" x="79.04" y="-202.8" font-family="Times,serif" font-size="14.00">Environment</text>
</g>
<!-- LH_RPC -->
<g id="node1" class="node">
<title>LH_RPC</title>
<ellipse fill="none" stroke="black" cx="272.33" cy="-468" rx="48.99" ry="18"/>
<text text-anchor="middle" x="272.33" y="-464.3" font-family="Times,serif" font-size="14.00">LH_RPC</text>
</g>
<!-- LH_MEM -->
<g id="node2" class="node">
<title>LH_MEM</title>
<ellipse fill="none" stroke="black" cx="468.87" cy="-414" rx="53.89" ry="18"/>
<text text-anchor="middle" x="468.87" y="-410.3" font-family="Times,serif" font-size="14.00">LH_MEM</text>
</g>
<!-- LH_RPC&#45;&gt;LH_MEM -->
<g id="edge6" class="edge">
<title>LH_RPC&#45;&gt;LH_MEM</title>
<path fill="none" stroke="black" d="M312.81,-457.68C331.55,-452.73 354.24,-446.65 374.57,-441 388.69,-437.07 403.97,-432.7 418.01,-428.64"/>
<polygon fill="black" stroke="black" points="419.34,-431.9 427.97,-425.75 417.39,-425.18 419.34,-431.9"/>
</g>
<!-- LH_SAFETY -->
<g id="node3" class="node">
<title>LH_SAFETY</title>
<ellipse fill="none" stroke="black" cx="468.87" cy="-468" rx="66.09" ry="18"/>
<text text-anchor="middle" x="468.87" y="-464.3" font-family="Times,serif" font-size="14.00">LH_SAFETY</text>
</g>
<!-- LH_RPC&#45;&gt;LH_SAFETY -->
<g id="edge7" class="edge">
<title>LH_RPC&#45;&gt;LH_SAFETY</title>
<path fill="none" stroke="black" d="M321.42,-468C342.78,-468 368.44,-468 392.27,-468"/>
<polygon fill="black" stroke="black" points="392.35,-471.5 402.35,-468 392.35,-464.5 392.35,-471.5"/>
</g>
<!-- LH_META -->
<g id="node4" class="node">
<title>LH_META</title>
<ellipse fill="none" stroke="black" cx="468.87" cy="-522" rx="56.59" ry="18"/>
<text text-anchor="middle" x="468.87" y="-518.3" font-family="Times,serif" font-size="14.00">LH_META</text>
</g>
<!-- LH_RPC&#45;&gt;LH_META -->
<g id="edge8" class="edge">
<title>LH_RPC&#45;&gt;LH_META</title>
<path fill="none" stroke="black" d="M311.76,-478.67C341.57,-486.94 383.18,-498.49 415.94,-507.59"/>
<polygon fill="black" stroke="black" points="415.23,-511.02 425.8,-510.32 417.1,-504.28 415.23,-511.02"/>
</g>
<!-- SEM_RPC -->
<g id="node12" class="node">
<title>SEM_RPC</title>
<ellipse fill="none" stroke="black" cx="633.55" cy="-414" rx="57.69" ry="18"/>
<text text-anchor="middle" x="633.55" y="-410.3" font-family="Times,serif" font-size="14.00">SEM_RPC</text>
</g>
<!-- LH_MEM&#45;&gt;SEM_RPC -->
<g id="edge5" class="edge">
<title>LH_MEM&#45;&gt;SEM_RPC</title>
<path fill="none" stroke="black" d="M523.14,-414C536.63,-414 551.31,-414 565.39,-414"/>
<polygon fill="black" stroke="black" points="565.52,-417.5 575.52,-414 565.52,-410.5 565.52,-417.5"/>
</g>
<!-- LH_EVENTS -->
<g id="node5" class="node">
<title>LH_EVENTS</title>
<ellipse fill="none" stroke="black" cx="272.33" cy="-414" rx="68.79" ry="18"/>
<text text-anchor="middle" x="272.33" y="-410.3" font-family="Times,serif" font-size="14.00">LH_EVENTS</text>
</g>
<!-- TOPICS -->
<g id="node24" class="node">
<title>TOPICS</title>
<ellipse fill="none" stroke="black" cx="468.87" cy="-331" rx="46.59" ry="18"/>
<text text-anchor="middle" x="468.87" y="-327.3" font-family="Times,serif" font-size="14.00">TOPICS</text>
</g>
<!-- LH_EVENTS&#45;&gt;TOPICS -->
<g id="edge4" class="edge">
<title>LH_EVENTS&#45;&gt;TOPICS</title>
<path fill="none" stroke="black" d="M323.05,-401.72C339.71,-396.96 358.21,-390.96 374.57,-384 395.59,-375.06 417.88,-362.52 435.4,-351.88"/>
<polygon fill="black" stroke="black" points="437.42,-354.75 444.09,-346.53 433.74,-348.79 437.42,-354.75"/>
</g>
<!-- RH_RPC -->
<g id="node6" class="node">
<title>RH_RPC</title>
<ellipse fill="none" stroke="black" cx="272.33" cy="-61" rx="50.09" ry="18"/>
<text text-anchor="middle" x="272.33" y="-57.3" font-family="Times,serif" font-size="14.00">RH_RPC</text>
</g>
<!-- INACT -->
<g id="node19" class="node">
<title>INACT</title>
<ellipse fill="none" stroke="black" cx="468.87" cy="-88" rx="40.89" ry="18"/>
<text text-anchor="middle" x="468.87" y="-84.3" font-family="Times,serif" font-size="14.00">INACT</text>
</g>
<!-- RH_RPC&#45;&gt;INACT -->
<g id="edge9" class="edge">
<title>RH_RPC&#45;&gt;INACT</title>
<path fill="none" stroke="black" d="M319.43,-67.4C349.62,-71.59 388.99,-77.05 419.6,-81.3"/>
<polygon fill="black" stroke="black" points="419.23,-84.78 429.62,-82.69 420.19,-77.85 419.23,-84.78"/>
</g>
<!-- POST -->
<g id="node20" class="node">
<title>POST</title>
<ellipse fill="none" stroke="black" cx="468.87" cy="-34" rx="36.29" ry="18"/>
<text text-anchor="middle" x="468.87" y="-30.3" font-family="Times,serif" font-size="14.00">POST</text>
</g>
<!-- RH_RPC&#45;&gt;POST -->
<g id="edge10" class="edge">
<title>RH_RPC&#45;&gt;POST</title>
<path fill="none" stroke="black" d="M319.43,-54.6C350.93,-50.23 392.43,-44.47 423.54,-40.15"/>
<polygon fill="black" stroke="black" points="424.24,-43.59 433.66,-38.75 423.27,-36.66 424.24,-43.59"/>
</g>
<!-- RH_PERCEPTION -->
<g id="node7" class="node">
<title>RH_PERCEPTION</title>
<ellipse fill="none" stroke="black" cx="272.33" cy="-277" rx="94.48" ry="18"/>
<text text-anchor="middle" x="272.33" y="-273.3" font-family="Times,serif" font-size="14.00">RH_PERCEPTION</text>
</g>
<!-- RH_WM -->
<g id="node8" class="node">
<title>RH_WM</title>
<ellipse fill="none" stroke="black" cx="272.33" cy="-223" rx="48.19" ry="18"/>
<text text-anchor="middle" x="272.33" y="-219.3" font-family="Times,serif" font-size="14.00">RH_WM</text>
</g>
<!-- RH_SAFETY -->
<g id="node9" class="node">
<title>RH_SAFETY</title>
<ellipse fill="none" stroke="black" cx="272.33" cy="-169" rx="67.69" ry="18"/>
<text text-anchor="middle" x="272.33" y="-165.3" font-family="Times,serif" font-size="14.00">RH_SAFETY</text>
</g>
<!-- RH_POST -->
<g id="node10" class="node">
<title>RH_POST</title>
<ellipse fill="none" stroke="black" cx="272.33" cy="-115" rx="55.79" ry="18"/>
<text text-anchor="middle" x="272.33" y="-111.3" font-family="Times,serif" font-size="14.00">RH_POST</text>
</g>
<!-- RH_EVENTS -->
<g id="node11" class="node">
<title>RH_EVENTS</title>
<ellipse fill="none" stroke="black" cx="272.33" cy="-331" rx="69.59" ry="18"/>
<text text-anchor="middle" x="272.33" y="-327.3" font-family="Times,serif" font-size="14.00">RH_EVENTS</text>
</g>
<!-- RH_EVENTS&#45;&gt;TOPICS -->
<g id="edge3" class="edge">
<title>RH_EVENTS&#45;&gt;TOPICS</title>
<path fill="none" stroke="black" d="M341.92,-331C364.77,-331 389.94,-331 411.74,-331"/>
<polygon fill="black" stroke="black" points="411.82,-334.5 421.82,-331 411.82,-327.5 411.82,-334.5"/>
</g>
<!-- SEM_STORE -->
<g id="node13" class="node">
<title>SEM_STORE</title>
<ellipse fill="none" stroke="black" cx="809.29" cy="-414" rx="70.69" ry="18"/>
<text text-anchor="middle" x="809.29" y="-410.3" font-family="Times,serif" font-size="14.00">SEM_STORE</text>
</g>
<!-- SEM_RPC&#45;&gt;SEM_STORE -->
<g id="edge11" class="edge">
<title>SEM_RPC&#45;&gt;SEM_STORE</title>
<path fill="none" stroke="black" d="M691.44,-414C703.12,-414 715.62,-414 727.94,-414"/>
<polygon fill="black" stroke="black" points="728.23,-417.5 738.23,-414 728.23,-410.5 728.23,-417.5"/>
</g>
<!-- EPI_RPC -->
<g id="node14" class="node">
<title>EPI_RPC</title>
<ellipse fill="none" stroke="black" cx="633.55" cy="-360" rx="51.99" ry="18"/>
<text text-anchor="middle" x="633.55" y="-356.3" font-family="Times,serif" font-size="14.00">EPI_RPC</text>
</g>
<!-- EPI_LOG -->
<g id="node15" class="node">
<title>EPI_LOG</title>
<ellipse fill="none" stroke="black" cx="809.29" cy="-360" rx="51.99" ry="18"/>
<text text-anchor="middle" x="809.29" y="-356.3" font-family="Times,serif" font-size="14.00">EPI_LOG</text>
</g>
<!-- EPI_RPC&#45;&gt;EPI_LOG -->
<g id="edge12" class="edge">
<title>EPI_RPC&#45;&gt;EPI_LOG</title>
<path fill="none" stroke="black" d="M685.74,-360C704.92,-360 726.91,-360 746.91,-360"/>
<polygon fill="black" stroke="black" points="747.17,-363.5 757.17,-360 747.17,-356.5 747.17,-363.5"/>
</g>
<!-- PROC_RPC -->
<g id="node16" class="node">
<title>PROC_RPC</title>
<ellipse fill="none" stroke="black" cx="633.55" cy="-306" rx="62.29" ry="18"/>
<text text-anchor="middle" x="633.55" y="-302.3" font-family="Times,serif" font-size="14.00">PROC_RPC</text>
</g>
<!-- PROC_SKILLS -->
<g id="node17" class="node">
<title>PROC_SKILLS</title>
<ellipse fill="none" stroke="black" cx="809.29" cy="-306" rx="77.19" ry="18"/>
<text text-anchor="middle" x="809.29" y="-302.3" font-family="Times,serif" font-size="14.00">PROC_SKILLS</text>
</g>
<!-- PROC_RPC&#45;&gt;PROC_SKILLS -->
<g id="edge13" class="edge">
<title>PROC_RPC&#45;&gt;PROC_SKILLS</title>
<path fill="none" stroke="black" d="M696.3,-306C704.57,-306 713.17,-306 721.77,-306"/>
<polygon fill="black" stroke="black" points="721.85,-309.5 731.85,-306 721.85,-302.5 721.85,-309.5"/>
</g>
<!-- PRE -->
<g id="node18" class="node">
<title>PRE</title>
<ellipse fill="none" stroke="black" cx="468.87" cy="-142" rx="30.59" ry="18"/>
<text text-anchor="middle" x="468.87" y="-138.3" font-family="Times,serif" font-size="14.00">PRE</text>
</g>
<!-- RULES -->
<g id="node21" class="node">
<title>RULES</title>
<ellipse fill="none" stroke="black" cx="633.55" cy="-88" rx="44.39" ry="18"/>
<text text-anchor="middle" x="633.55" y="-84.3" font-family="Times,serif" font-size="14.00">RULES</text>
</g>
<!-- PRE&#45;&gt;RULES -->
<g id="edge14" class="edge">
<title>PRE&#45;&gt;RULES</title>
<path fill="none" stroke="black" d="M496,-133.32C521.1,-124.99 559.47,-112.26 589.16,-102.4"/>
<polygon fill="black" stroke="black" points="590.47,-105.66 598.86,-99.18 588.27,-99.01 590.47,-105.66"/>
</g>
<!-- INACT&#45;&gt;RULES -->
<g id="edge15" class="edge">
<title>INACT&#45;&gt;RULES</title>
<path fill="none" stroke="black" d="M510.08,-88C530.89,-88 556.57,-88 579.03,-88"/>
<polygon fill="black" stroke="black" points="579.1,-91.5 589.1,-88 579.1,-84.5 579.1,-91.5"/>
</g>
<!-- POST&#45;&gt;RULES -->
<g id="edge16" class="edge">
<title>POST&#45;&gt;RULES</title>
<path fill="none" stroke="black" d="M499.71,-43.9C524.73,-52.21 560.81,-64.19 589.06,-73.56"/>
<polygon fill="black" stroke="black" points="588.09,-76.93 598.69,-76.76 590.3,-70.29 588.09,-76.93"/>
</g>
<!-- META_RPC -->
<g id="node22" class="node">
<title>META_RPC</title>
<ellipse fill="none" stroke="black" cx="79.04" cy="-605" rx="63.09" ry="18"/>
<text text-anchor="middle" x="79.04" y="-601.3" font-family="Times,serif" font-size="14.00">META_RPC</text>
</g>
<!-- META_ENGINE -->
<g id="node23" class="node">
<title>META_ENGINE</title>
<ellipse fill="none" stroke="black" cx="272.33" cy="-605" rx="83.39" ry="18"/>
<text text-anchor="middle" x="272.33" y="-601.3" font-family="Times,serif" font-size="14.00">META_ENGINE</text>
</g>
<!-- META_RPC&#45;&gt;META_ENGINE -->
<g id="edge17" class="edge">
<title>META_RPC&#45;&gt;META_ENGINE</title>
<path fill="none" stroke="black" d="M142.15,-605C153.83,-605 166.27,-605 178.64,-605"/>
<polygon fill="black" stroke="black" points="179,-608.5 189,-605 179,-601.5 179,-608.5"/>
</g>
<!-- CAM -->
<g id="node25" class="node">
<title>CAM</title>
<ellipse fill="none" stroke="black" cx="79.04" cy="-169" rx="33.29" ry="18"/>
<text text-anchor="middle" x="79.04" y="-165.3" font-family="Times,serif" font-size="14.00">CAM</text>
</g>
<!-- CAM&#45;&gt;RH_PERCEPTION -->
<g id="edge1" class="edge">
<title>CAM&#45;&gt;RH_PERCEPTION</title>
<path fill="none" stroke="black" d="M93.64,-185.17C109.96,-203.55 139.03,-233.17 170.09,-250 178.08,-254.33 186.8,-257.99 195.67,-261.09"/>
<polygon fill="black" stroke="black" points="194.73,-264.47 205.32,-264.24 196.9,-257.81 194.73,-264.47"/>
</g>
<!-- STEP_API -->
<g id="node26" class="node">
<title>STEP_API</title>
<ellipse fill="none" stroke="black" cx="79.04" cy="-115" rx="56.59" ry="18"/>
<text text-anchor="middle" x="79.04" y="-111.3" font-family="Times,serif" font-size="14.00">STEP_API</text>
</g>
<!-- STEP_API&#45;&gt;RH_RPC -->
<g id="edge2" class="edge">
<title>STEP_API&#45;&gt;RH_RPC</title>
<path fill="none" stroke="black" d="M120.31,-102.64C135.83,-97.95 153.76,-92.62 170.09,-88 186.76,-83.28 205.04,-78.33 221.42,-73.99"/>
<polygon fill="black" stroke="black" points="222.57,-77.3 231.34,-71.36 220.78,-70.53 222.57,-77.3"/>
</g>
</g>
</svg>
