<svg xmlns="http://www.w3.org/2000/svg" viewBox="0 0 800 320" width="800" height="320" font-family="Consolas, monospace">
  <rect width="800" height="320" fill="#0a0e17"/>
  <rect x="0" y="0" width="800" height="34" fill="#131a2b"/>
  <rect x="0" y="34" width="800" height="2" fill="#4a9eff"/>
  <text x="14" y="22" fill="#4a9eff" font-size="14" font-weight="bold" letter-spacing="1">Concourse-12</text>
  <text x="786" y="22" fill="#7a8ba8" font-size="10" text-anchor="end">CIVILIAN BREACHING SHOTGUN (LESS-LETHAL CAPABLE)</text>
  <rect x="430" y="124" width="240" height="12" fill="#7a8ba8"/>
  <rect x="664" y="119" width="6" height="5" fill="#7a8ba8"/>
  <rect x="360" y="114" width="70" height="32" fill="#7a8ba8" rx="2"/>
  <rect x="430" y="134" width="80" height="14" fill="#7a8ba8" rx="2"/>
  <polygon points="360,146 372,146 290,180 270,166 270,152 340,118 360,114" fill="#7a8ba8"/>  <line x1="550" y1="124" x2="550" y2="68" stroke="#4a9eff" stroke-width="0.7"/>
  <text x="550" y="66" fill="#4a9eff" font-size="9" letter-spacing="1" text-anchor="middle">BARREL</text>
  <line x1="415" y1="114" x2="415" y2="68" stroke="#4a9eff" stroke-width="0.7"/>
  <text x="415" y="66" fill="#4a9eff" font-size="9" letter-spacing="1" text-anchor="middle">RECEIVER</text>
  <rect x="0" y="212" width="800" height="2" fill="#4a9eff" opacity="0.4"/>
  <text x="14" y="230" fill="#7a8ba8" font-size="9" letter-spacing="1">NAME</text>
  <text x="94" y="230" fill="#e0e6f0" font-size="11">Concourse-12</text>
  <text x="420" y="230" fill="#7a8ba8" font-size="9" letter-spacing="1">KIND</text>
  <text x="500" y="230" fill="#e0e6f0" font-size="11">SHOTGUN</text>
  <text x="14" y="248" fill="#7a8ba8" font-size="9" letter-spacing="1">CALIBER</text>
  <text x="94" y="248" fill="#e0e6f0" font-size="11">12-gauge</text>
  <text x="420" y="248" fill="#7a8ba8" font-size="9" letter-spacing="1">CAPACITY</text>
  <text x="500" y="248" fill="#e0e6f0" font-size="11">6</text>
  <text x="14" y="266" fill="#7a8ba8" font-size="9" letter-spacing="1">ROLE</text>
  <text x="94" y="266" fill="#e0e6f0" font-size="11">Civilian breaching shotgun (less-lethal capable)</text>
  <text x="420" y="266" fill="#7a8ba8" font-size="9" letter-spacing="1">FEATURES</text>
  <text x="500" y="266" fill="#e0e6f0" font-size="11">beanbag-capable, breaching-rounds</text>
</svg>
