<svg xmlns="http://www.w3.org/2000/svg" viewBox="0 0 800 320" width="800" height="320" font-family="Consolas, monospace">
  <rect width="800" height="320" fill="#0a0e17"/>
  <rect x="0" y="0" width="800" height="34" fill="#131a2b"/>
  <rect x="0" y="34" width="800" height="2" fill="#4a9eff"/>
  <text x="14" y="22" fill="#4a9eff" font-size="14" font-weight="bold" letter-spacing="1">M-310</text>
  <text x="786" y="22" fill="#7a8ba8" font-size="10" text-anchor="end">UNN SERVICE SIDEARM (SECURITY ISSUE)</text>
  <rect x="340" y="112" width="130" height="20" fill="#7a8ba8" rx="2"/>
  <rect x="470" y="116" width="14" height="12" fill="#7a8ba8"/>
  <polygon points="360,132 450,132 430,152 382,152 372,148" fill="#7a8ba8"/>
  <polygon points="372,148 412,148 404,208 364,208" fill="#7a8ba8"/>
  <rect x="344" y="106" width="6" height="6" fill="#7a8ba8"/>
  <rect x="460" y="106" width="6" height="6" fill="#7a8ba8"/>
  <rect x="362" y="206" width="44" height="6" fill="#7a8ba8"/>  <line x1="405" y1="112" x2="405" y2="68" stroke="#4a9eff" stroke-width="0.7"/>
  <text x="405" y="66" fill="#4a9eff" font-size="9" letter-spacing="1" text-anchor="middle">SLIDE</text>
  <line x1="475" y1="112" x2="475" y2="68" stroke="#4a9eff" stroke-width="0.7"/>
  <text x="475" y="66" fill="#4a9eff" font-size="9" letter-spacing="1" text-anchor="middle">BARREL</text>
  <line x1="463" y1="102" x2="463" y2="68" stroke="#4a9eff" stroke-width="0.7"/>
  <text x="463" y="66" fill="#4a9eff" font-size="9" letter-spacing="1" text-anchor="middle">SIGHTS</text>
  <rect x="0" y="212" width="800" height="2" fill="#4a9eff" opacity="0.4"/>
  <text x="14" y="230" fill="#7a8ba8" font-size="9" letter-spacing="1">NAME</text>
  <text x="94" y="230" fill="#e0e6f0" font-size="11">M-310</text>
  <text x="420" y="230" fill="#7a8ba8" font-size="9" letter-spacing="1">KIND</text>
  <text x="500" y="230" fill="#e0e6f0" font-size="11">PISTOL</text>
  <text x="14" y="248" fill="#7a8ba8" font-size="9" letter-spacing="1">CALIBER</text>
  <text x="94" y="248" fill="#e0e6f0" font-size="11">9mm</text>
  <text x="420" y="248" fill="#7a8ba8" font-size="9" letter-spacing="1">CAPACITY</text>
  <text x="500" y="248" fill="#e0e6f0" font-size="11">17</text>
  <text x="14" y="266" fill="#7a8ba8" font-size="9" letter-spacing="1">ROLE</text>
  <text x="94" y="266" fill="#e0e6f0" font-size="11">UNN service sidearm (security issue)</text>
  <text x="420" y="266" fill="#7a8ba8" font-size="9" letter-spacing="1">FEATURES</text>
  <text x="500" y="266" fill="#e0e6f0" font-size="11">smart-sight</text>
</svg>
