<svg xmlns="http://www.w3.org/2000/svg" viewBox="0 0 800 320" width="800" height="320" font-family="Consolas, monospace">
  <rect width="800" height="320" fill="#0a0e17"/>
  <rect x="0" y="0" width="800" height="34" fill="#131a2b"/>
  <rect x="0" y="34" width="800" height="2" fill="#4a9eff"/>
  <text x="14" y="22" fill="#4a9eff" font-size="14" font-weight="bold" letter-spacing="1">M-340</text>
  <text x="786" y="22" fill="#7a8ba8" font-size="10" text-anchor="end">UNN SERVICE RIFLE (MODIFIED PDC AMMUNITION ABOARD)</text>
  <rect x="460" y="126" width="200" height="8" fill="#7a8ba8"/>
  <rect x="660" y="123" width="14" height="14" fill="#7a8ba8"/>
  <rect x="370" y="116" width="90" height="28" fill="#7a8ba8" rx="2"/>
  <rect x="380" y="108" width="200" height="6" fill="#7a8ba8"/>
  <rect x="440" y="92" width="50" height="22" fill="none" stroke="#4a9eff" stroke-width="1.5" rx="2"/>
  <line x1="465" y1="92" x2="465" y2="108" stroke="#4a9eff" stroke-width="1"/>
  <line x1="440" y1="100" x2="490" y2="100" stroke="#4a9eff" stroke-width="1"/>
  <polygon points="380,144 420,144 414,190 386,190" fill="#7a8ba8"/>
  <polygon points="350,144 370,144 364,186 344,186" fill="#7a8ba8"/>
  <polygon points="370,116 290,122 280,142 340,144" fill="#7a8ba8"/>
  <line x1="370" y1="126" x2="300" y2="132" stroke="#0a0e17" stroke-width="1"/>  <line x1="560" y1="126" x2="560" y2="68" stroke="#4a9eff" stroke-width="0.7"/>
  <text x="560" y="66" fill="#4a9eff" font-size="9" letter-spacing="1" text-anchor="middle">BARREL</text>
  <line x1="465" y1="88" x2="465" y2="68" stroke="#4a9eff" stroke-width="0.7"/>
  <text x="465" y="66" fill="#4a9eff" font-size="9" letter-spacing="1" text-anchor="middle">SIGHT</text>
  <line x1="415" y1="116" x2="415" y2="68" stroke="#4a9eff" stroke-width="0.7"/>
  <text x="415" y="66" fill="#4a9eff" font-size="9" letter-spacing="1" text-anchor="middle">RECEIVER</text>
  <rect x="0" y="212" width="800" height="2" fill="#4a9eff" opacity="0.4"/>
  <text x="14" y="230" fill="#7a8ba8" font-size="9" letter-spacing="1">NAME</text>
  <text x="94" y="230" fill="#e0e6f0" font-size="11">M-340</text>
  <text x="420" y="230" fill="#7a8ba8" font-size="9" letter-spacing="1">KIND</text>
  <text x="500" y="230" fill="#e0e6f0" font-size="11">RIFLE</text>
  <text x="14" y="248" fill="#7a8ba8" font-size="9" letter-spacing="1">CALIBER</text>
  <text x="94" y="248" fill="#e0e6f0" font-size="11">5.56mm</text>
  <text x="420" y="248" fill="#7a8ba8" font-size="9" letter-spacing="1">CAPACITY</text>
  <text x="500" y="248" fill="#e0e6f0" font-size="11">30</text>
  <text x="14" y="266" fill="#7a8ba8" font-size="9" letter-spacing="1">ROLE</text>
  <text x="94" y="266" fill="#e0e6f0" font-size="11">UNN service rifle (modified PDC ammunition aboard)</text>
  <text x="420" y="266" fill="#7a8ba8" font-size="9" letter-spacing="1">FEATURES</text>
  <text x="500" y="266" fill="#e0e6f0" font-size="11">smart-sight, burst, frangible-rated</text>
</svg>
